<svg width="282" height="161" viewBox="0 0 282 161" fill="none" xmlns="http://www.w3.org/2000/svg">
<rect y="0.289062" width="282" height="160.419" rx="7" fill="#E2E2E2"/>
<path d="M66.71 93V68.528H73.664L79.744 80.954L85.786 68.528H92.702V93H85.558V80.764L81.644 88.82H77.806L73.854 80.764V93H66.71ZM107.88 93.38C103.826 93.38 100.723 92.392 98.5697 90.416C96.4417 88.44 95.3777 85.248 95.3777 80.84C95.3777 77.8 95.8591 75.3553 96.8217 73.506C97.7844 71.6313 99.1904 70.276 101.04 69.44C102.914 68.5787 105.194 68.148 107.88 68.148C110.565 68.148 112.832 68.5787 114.682 69.44C116.556 70.276 117.975 71.6313 118.938 73.506C119.9 75.3553 120.382 77.8 120.382 80.84C120.382 85.248 119.305 88.44 117.152 90.416C114.998 92.392 111.908 93.38 107.88 93.38ZM107.88 87.3C109.704 87.3 111.021 86.7933 111.832 85.78C112.668 84.7413 113.086 83.0947 113.086 80.84C113.086 78.4333 112.668 76.736 111.832 75.748C111.021 74.7347 109.704 74.228 107.88 74.228C106.056 74.228 104.726 74.7347 103.89 75.748C103.079 76.736 102.674 78.4333 102.674 80.84C102.674 83.0947 103.079 84.7413 103.89 85.78C104.726 86.7933 106.056 87.3 107.88 87.3ZM123.042 93V68.528H130.186V87.528H141.206V93H123.042ZM154.489 93.38C150.436 93.38 147.332 92.392 145.179 90.416C143.051 88.44 141.987 85.248 141.987 80.84C141.987 77.8 142.468 75.3553 143.431 73.506C144.394 71.6313 145.8 70.276 147.649 69.44C149.524 68.5787 151.804 68.148 154.489 68.148C157.174 68.148 159.442 68.5787 161.291 69.44C163.166 70.276 164.584 71.6313 165.547 73.506C166.51 75.3553 166.991 77.8 166.991 80.84C166.991 85.248 165.914 88.44 163.761 90.416C161.608 92.392 158.517 93.38 154.489 93.38ZM154.489 87.3C156.313 87.3 157.63 86.7933 158.441 85.78C159.277 84.7413 159.695 83.0947 159.695 80.84C159.695 78.4333 159.277 76.736 158.441 75.748C157.63 74.7347 156.313 74.228 154.489 74.228C152.665 74.228 151.335 74.7347 150.499 75.748C149.688 76.736 149.283 78.4333 149.283 80.84C149.283 83.0947 149.688 84.7413 150.499 85.78C151.335 86.7933 152.665 87.3 154.489 87.3ZM169.651 93V68.528H180.595C183.103 68.528 185.244 68.946 187.017 69.782C188.791 70.5927 190.146 71.91 191.083 73.734C192.021 75.5327 192.489 77.9267 192.489 80.916C192.489 85.1213 191.463 88.1867 189.411 90.112C187.359 92.0373 184.421 93 180.595 93H169.651ZM176.795 87.528H179.683C180.874 87.528 181.875 87.3633 182.685 87.034C183.496 86.6793 184.117 86.0333 184.547 85.096C184.978 84.1333 185.193 82.74 185.193 80.916C185.193 79.092 184.991 77.686 184.585 76.698C184.205 75.6847 183.61 74.988 182.799 74.608C181.989 74.2027 180.95 74 179.683 74H176.795V87.528ZM199.973 93V84.032L191.157 68.528H198.605L203.545 77.762L208.485 68.528H215.933L207.117 84.032V93H199.973Z" fill="#AFAFAF"/>
</svg>
