<svg width="111" height="20" viewBox="0 0 111 20" fill="none" xmlns="http://www.w3.org/2000/svg">
<path d="M0.26 19V0.967999H5.384L9.864 10.124L14.316 0.967999H19.412V19H14.148V9.984L11.264 15.92H8.436L5.524 9.984V19H0.26ZM30.5956 19.28C27.6089 19.28 25.3223 18.552 23.7356 17.096C22.1676 15.64 21.3836 13.288 21.3836 10.04C21.3836 7.8 21.7383 5.99867 22.4476 4.636C23.1569 3.25467 24.1929 2.256 25.5556 1.64C26.9369 1.00533 28.6169 0.687999 30.5956 0.687999C32.5743 0.687999 34.2449 1.00533 35.6076 1.64C36.9889 2.256 38.0343 3.25467 38.7436 4.636C39.4529 5.99867 39.8076 7.8 39.8076 10.04C39.8076 13.288 39.0143 15.64 37.4276 17.096C35.8409 18.552 33.5636 19.28 30.5956 19.28ZM30.5956 14.8C31.9396 14.8 32.9103 14.4267 33.5076 13.68C34.1236 12.9147 34.4316 11.7013 34.4316 10.04C34.4316 8.26667 34.1236 7.016 33.5076 6.288C32.9103 5.54133 31.9396 5.168 30.5956 5.168C29.2516 5.168 28.2716 5.54133 27.6556 6.288C27.0583 7.016 26.7596 8.26667 26.7596 10.04C26.7596 11.7013 27.0583 12.9147 27.6556 13.68C28.2716 14.4267 29.2516 14.8 30.5956 14.8ZM41.7678 19V0.967999H47.0318V14.968H55.1518V19H41.7678ZM64.9393 19.28C61.9527 19.28 59.666 18.552 58.0793 17.096C56.5113 15.64 55.7273 13.288 55.7273 10.04C55.7273 7.8 56.082 5.99867 56.7913 4.636C57.5007 3.25467 58.5367 2.256 59.8993 1.64C61.2807 1.00533 62.9607 0.687999 64.9393 0.687999C66.918 0.687999 68.5887 1.00533 69.9513 1.64C71.3327 2.256 72.378 3.25467 73.0873 4.636C73.7967 5.99867 74.1513 7.8 74.1513 10.04C74.1513 13.288 73.358 15.64 71.7713 17.096C70.1847 18.552 67.9073 19.28 64.9393 19.28ZM64.9393 14.8C66.2833 14.8 67.254 14.4267 67.8513 13.68C68.4673 12.9147 68.7753 11.7013 68.7753 10.04C68.7753 8.26667 68.4673 7.016 67.8513 6.288C67.254 5.54133 66.2833 5.168 64.9393 5.168C63.5953 5.168 62.6153 5.54133 61.9993 6.288C61.402 7.016 61.1033 8.26667 61.1033 10.04C61.1033 11.7013 61.402 12.9147 61.9993 13.68C62.6153 14.4267 63.5953 14.8 64.9393 14.8ZM76.1116 19V0.967999H84.1756C86.0236 0.967999 87.6009 1.276 88.9076 1.892C90.2142 2.48933 91.2129 3.46 91.9036 4.804C92.5942 6.12933 92.9396 7.89333 92.9396 10.096C92.9396 13.1947 92.1836 15.4533 90.6716 16.872C89.1596 18.2907 86.9942 19 84.1756 19H76.1116ZM81.3756 14.968H83.5036C84.3809 14.968 85.1182 14.8467 85.7156 14.604C86.3129 14.3427 86.7702 13.8667 87.0876 13.176C87.4049 12.4667 87.5636 11.44 87.5636 10.096C87.5636 8.752 87.4142 7.716 87.1156 6.988C86.8356 6.24133 86.3969 5.728 85.7996 5.448C85.2022 5.14933 84.4369 5 83.5036 5H81.3756V14.968ZM98.4538 19V12.392L91.9578 0.967999H97.4458L101.086 7.772L104.726 0.967999H110.214L103.718 12.392V19H98.4538Z" fill="black"/>
</svg>
