<svg width="110" height="19" viewBox="0 0 110 19" fill="none" xmlns="http://www.w3.org/2000/svg">
<path d="M-0.0017187 18.3125V0.280499H5.12228L9.60228 9.4365L14.0543 0.280499H19.1503V18.3125H13.8863V9.2965L11.0023 15.2325H8.17428L5.26228 9.2965V18.3125H-0.0017187ZM30.3339 18.5925C27.3472 18.5925 25.0605 17.8645 23.4739 16.4085C21.9059 14.9525 21.1219 12.6005 21.1219 9.3525C21.1219 7.1125 21.4765 5.31117 22.1859 3.9485C22.8952 2.56717 23.9312 1.5685 25.2939 0.9525C26.6752 0.317832 28.3552 0.000498772 30.3339 0.000498772C32.3125 0.000498772 33.9832 0.317832 35.3459 0.9525C36.7272 1.5685 37.7725 2.56717 38.4819 3.9485C39.1912 5.31117 39.5459 7.1125 39.5459 9.3525C39.5459 12.6005 38.7525 14.9525 37.1659 16.4085C35.5792 17.8645 33.3019 18.5925 30.3339 18.5925ZM30.3339 14.1125C31.6779 14.1125 32.6485 13.7392 33.2459 12.9925C33.8619 12.2272 34.1699 11.0138 34.1699 9.3525C34.1699 7.57917 33.8619 6.3285 33.2459 5.6005C32.6485 4.85383 31.6779 4.4805 30.3339 4.4805C28.9899 4.4805 28.0099 4.85383 27.3939 5.6005C26.7965 6.3285 26.4979 7.57917 26.4979 9.3525C26.4979 11.0138 26.7965 12.2272 27.3939 12.9925C28.0099 13.7392 28.9899 14.1125 30.3339 14.1125ZM41.5061 18.3125V0.280499H46.7701V14.2805H54.8901V18.3125H41.5061ZM64.6776 18.5925C61.691 18.5925 59.4043 17.8645 57.8176 16.4085C56.2496 14.9525 55.4656 12.6005 55.4656 9.3525C55.4656 7.1125 55.8203 5.31117 56.5296 3.9485C57.239 2.56717 58.275 1.5685 59.6376 0.9525C61.019 0.317832 62.699 0.000498772 64.6776 0.000498772C66.6563 0.000498772 68.327 0.317832 69.6896 0.9525C71.071 1.5685 72.1163 2.56717 72.8256 3.9485C73.535 5.31117 73.8896 7.1125 73.8896 9.3525C73.8896 12.6005 73.0963 14.9525 71.5096 16.4085C69.923 17.8645 67.6456 18.5925 64.6776 18.5925ZM64.6776 14.1125C66.0216 14.1125 66.9923 13.7392 67.5896 12.9925C68.2056 12.2272 68.5136 11.0138 68.5136 9.3525C68.5136 7.57917 68.2056 6.3285 67.5896 5.6005C66.9923 4.85383 66.0216 4.4805 64.6776 4.4805C63.3336 4.4805 62.3536 4.85383 61.7376 5.6005C61.1403 6.3285 60.8416 7.57917 60.8416 9.3525C60.8416 11.0138 61.1403 12.2272 61.7376 12.9925C62.3536 13.7392 63.3336 14.1125 64.6776 14.1125ZM75.8498 18.3125V0.280499H83.9138C85.7618 0.280499 87.3392 0.588499 88.6458 1.2045C89.9525 1.80183 90.9512 2.7725 91.6418 4.1165C92.3325 5.44183 92.6778 7.20583 92.6778 9.4085C92.6778 12.5072 91.9218 14.7658 90.4098 16.1845C88.8978 17.6032 86.7325 18.3125 83.9138 18.3125H75.8498ZM81.1138 14.2805H83.2418C84.1192 14.2805 84.8565 14.1592 85.4538 13.9165C86.0512 13.6552 86.5085 13.1792 86.8258 12.4885C87.1432 11.7792 87.3018 10.7525 87.3018 9.4085C87.3018 8.0645 87.1525 7.0285 86.8538 6.3005C86.5738 5.55383 86.1352 5.0405 85.5378 4.7605C84.9405 4.46183 84.1752 4.3125 83.2418 4.3125H81.1138V14.2805ZM98.1921 18.3125V11.7045L91.6961 0.280499H97.1841L100.824 7.0845L104.464 0.280499H109.952L103.456 11.7045V18.3125H98.1921Z" fill="#0096FF"/>
</svg>
